<svg width="36" height="29" viewBox="0 0 36 29" fill="none" xmlns="http://www.w3.org/2000/svg">
<path d="M16.5 24.1667C16.075 24.1667 15.7187 24.0509 15.4312 23.8193C15.1437 23.5877 15 23.3007 15 22.9583V15.7083L6.3 6.76668C5.925 6.3639 5.86875 5.94098 6.13125 5.49793C6.39375 5.05487 6.85 4.83334 7.5 4.83334H28.5C29.15 4.83334 29.6063 5.05487 29.8688 5.49793C30.1313 5.94098 30.075 6.3639 29.7 6.76668L21 15.7083V22.9583C21 23.3007 20.8562 23.5877 20.5687 23.8193C20.2812 24.0509 19.925 24.1667 19.5 24.1667H16.5ZM18 14.8625L25.425 7.25001H10.575L18 14.8625Z" fill="white"/>
</svg>
